<svg width="16" height="16" viewBox="0 0 16 16" fill="none" xmlns="http://www.w3.org/2000/svg">
<path fill-rule="evenodd" clip-rule="evenodd" d="M8 1.9748C11.3093 1.9748 13.8976 4.62309 13.8976 8C13.8976 11.3769 11.3038 14.0252 8 14.0252C4.69626 14.0251 2.10243 11.3769 2.10242 8C2.10242 4.62313 4.6908 1.97486 8 1.9748ZM8 3.30444C5.42801 3.3045 3.5658 5.29628 3.56579 8.00554C3.5658 10.7148 5.47717 12.6844 8 12.6845C10.5229 12.6845 12.4287 10.6704 12.4288 8.00554C12.4288 5.27956 10.572 3.30444 8 3.30444Z" fill="black"/>
<path fill-rule="evenodd" clip-rule="evenodd" d="M8 0C12.5598 1.62586e-06 16 3.43811 16 8C16 12.5619 12.5598 16 8 16C3.44027 15.9999 0 12.5619 0 8C1.52183e-07 3.43815 3.44027 5.63819e-05 8 0ZM8 1.28528C4.25393 1.28534 1.42523 4.1725 1.42523 8C1.42523 11.8275 4.25393 14.7147 8 14.7147C11.7461 14.7147 14.5693 11.8276 14.5693 8C14.5693 4.17246 11.7461 1.28528 8 1.28528Z" fill="black"/>
</svg>
